<svg xmlns="http://www.w3.org/2000/svg" width="48" height="48" viewBox="0 0 40 40">
    <g fill="none" fill-rule="evenodd">
        <path fill="#1877F2" d="M20 0C8.954 0 0 8.954 0 20c0 9.983 7.314 18.257 16.875 19.757V25.781h-5.078V20h5.078v-4.406c0-5.013 2.986-7.781 7.554-7.781 2.188 0 4.477.39 4.477.39v4.922h-2.522c-2.484 0-3.259 1.542-3.259 3.123V20h5.547l-.887 5.781h-4.66v13.976C32.686 38.257 40 29.983 40 20 40 8.954 31.046 0 20 0z"/>
        <path fill="#FFF" d="M28.672 20h-5.547v-3.752c0-1.581.775-3.123 3.26-3.123h2.521V8.203s-2.289-.39-4.477-.39c-4.568 0-7.554 2.768-7.554 7.78V20h-5.078v5.781h5.078v13.976a20.15 20.15 0 0 0 6.25 0V25.781h4.66L28.672 20z"/>
    </g>
</svg>
