<svg xmlns="http://www.w3.org/2000/svg" width="48" height="48" viewBox="0 0 40 40">
    <g fill="none" fill-rule="nonzero">
        <circle cx="20" cy="20" r="20" fill="#1DA1F2"/>
        <path fill="#FFF" d="M16.34 30.55c8.87 0 13.72-7.35 13.72-13.72 0-.21 0-.42-.01-.62.94-.68 1.76-1.53 2.41-2.5-.86.38-1.79.64-2.77.76 1-.6 1.76-1.54 2.12-2.67-.93.55-1.96.95-3.06 1.17a4.799 4.799 0 0 0-3.52-1.52c-2.66 0-4.82 2.16-4.82 4.82 0 .38.04.75.13 1.1a13.68 13.68 0 0 1-9.94-5.04c-.41.71-.65 1.54-.65 2.42a4.8 4.8 0 0 0 2.15 4.01c-.79-.02-1.53-.24-2.18-.6v.06c0 2.34 1.66 4.28 3.87 4.73a4.807 4.807 0 0 1-2.18.08 4.815 4.815 0 0 0 4.5 3.35 9.693 9.693 0 0 1-7.14 1.99c2.11 1.38 4.65 2.18 7.37 2.18"/>
    </g>
</svg>
